<?xml version="1.0" standalone="no"?>
<!DOCTYPE svg PUBLIC "-//W3C//DTD SVG 20010904//EN"
 "http://www.w3.org/TR/2001/REC-SVG-20010904/DTD/svg10.dtd">
<svg version="1.0" xmlns="http://www.w3.org/2000/svg"
 width="145.000000pt" height="145.000000pt" viewBox="0 0 145.000000 145.000000"
 preserveAspectRatio="xMidYMid meet">
<metadata>
Created by potrace 1.11, written by Peter Selinger 2001-2013
</metadata>
<g transform="translate(0.000000,145.000000) scale(0.100000,-0.100000)"
fill="#000000" stroke="none">
<path d="M571 1429 c-187 -48 -342 -188 -416 -374 -15 -38 -45 -99 -67 -135
-215 -357 -10 -820 402 -909 25 -5 142 -8 260 -7 196 2 221 4 279 26 198 71
339 219 397 415 26 90 24 250 -5 339 -23 71 -58 141 -92 185 -10 13 -19 31
-19 39 0 9 -19 54 -41 100 -74 152 -231 282 -389 322 -82 21 -227 21 -309 -1z
m293 -23 c159 -36 349 -199 391 -336 8 -24 7 -24 -28 7 -53 47 -154 99 -227
119 -87 23 -423 27 -520 6 -82 -18 -193 -70 -248 -117 -52 -45 -54 -29 -5 54
71 120 214 228 353 266 55 15 219 15 284 1z m-261 -235 c-223 -102 -366 -312
-367 -542 -1 -48 -5 -85 -9 -82 -13 8 -53 105 -67 163 -19 77 -17 218 4 262
38 79 208 185 327 203 24 4 46 9 48 11 2 2 27 4 55 4 l51 0 -42 -19z m382 -1
c96 -24 218 -97 282 -170 55 -63 47 -261 -16 -395 -16 -36 -31 -65 -33 -65 -2
0 -3 30 -3 67 -1 163 -50 291 -157 408 -64 70 -106 101 -198 147 l-55 27 65
-3 c36 -3 88 -10 115 -16z m-260 -79 c-2 -5 5 -19 16 -32 48 -54 52 -65 35
-96 -8 -16 -22 -35 -30 -42 -14 -12 -16 -10 -16 10 0 13 -12 42 -25 64 -29 47
-31 63 -9 93 14 20 42 22 29 3z m-55 -134 c0 -48 -21 -48 -47 1 -20 38 -23 50
-13 70 l11 24 24 -36 c14 -20 25 -47 25 -59z m-554 -134 c2 -105 37 -223 91
-304 19 -29 47 -86 64 -128 54 -141 167 -263 304 -331 69 -33 64 -37 -36 -26
-235 24 -439 206 -494 441 -18 72 -19 184 -4 257 8 41 64 178 72 178 1 0 3
-39 3 -87z m1292 -102 c15 -85 7 -217 -18 -291 -79 -234 -300 -400 -533 -400
l-52 0 64 30 c145 69 259 195 312 345 11 32 33 77 48 99 35 53 77 150 87 201
5 22 9 43 10 48 1 4 2 42 4 85 l2 77 33 -70 c18 -38 38 -94 43 -124z m-473 77
c-9 -106 -50 -219 -107 -300 -19 -28 -20 -28 -134 -28 l-114 0 -37 57 c-49 76
-82 176 -89 265 l-6 73 247 0 246 0 -6 -67z m165 -20 c-1 -36 -34 -102 -75
-147 -38 -42 -102 -87 -111 -78 -7 7 29 80 43 90 19 12 63 79 58 88 -3 4 -14
5 -25 2 -18 -5 -20 -1 -16 28 3 19 5 35 5 37 1 1 28 2 61 2 56 0 60 -2 60 -22z
m-160 -405 l0 -33 -244 0 -244 0 -4 30 c-2 16 -1 31 4 32 4 2 116 3 248 3
l240 0 0 -32z m-508 -66 c107 -59 277 -87 404 -65 90 15 214 75 283 137 32 28
34 27 17 -14 -59 -141 -245 -295 -386 -320 -74 -13 -225 60 -320 155 -54 54
-130 168 -130 195 0 4 19 -8 43 -27 23 -19 63 -47 89 -61z"/>
<path d="M520 777 c0 -55 63 -215 92 -233 7 -4 45 -8 86 -9 l74 -2 29 46 c31
49 69 158 69 197 l0 24 -175 0 -175 0 0 -23z"/>
</g>
</svg>
