<?xml version="1.0" standalone="no"?><!-- Generator: Gravit.io --><svg xmlns="http://www.w3.org/2000/svg" xmlns:xlink="http://www.w3.org/1999/xlink" style="isolation:isolate" viewBox="0 0 144.8 145.1" width="144.8" height="145.1"><defs><clipPath id="_clipPath_6TxHTbOCJGcz51LxnT4dltRaOQeaoa4p"><rect width="144.8" height="145.1"/></clipPath></defs><g clip-path="url(#_clipPath_6TxHTbOCJGcz51LxnT4dltRaOQeaoa4p)"><g/><path d=" M 131.5 46.2 C 124.9 19.7 100.9 0 72.4 0 C 43.9 0 19.9 19.7 13.3 46.2 C 5 56.6 0 69.8 0 84.2 C 0 117.8 27.3 145.1 60.9 145.1 C 64.8 145.1 68.7 144.7 72.4 144 C 76.1 144.7 80 145.1 83.9 145.1 C 117.5 145.1 144.8 117.8 144.8 84.2 C 144.8 69.8 139.8 56.6 131.5 46.2 Z  M 130.5 60.9 C 130.5 72.5 127.1 83.3 121.2 92.4 C 121.6 89.7 121.8 87 121.8 84.2 C 121.8 57.2 104.1 34.2 79.7 26.3 C 81.1 26.2 82.5 26.1 84 26.1 C 102.1 26.1 118.3 34.4 129 47.5 C 129.9 51.8 130.5 56.3 130.5 60.9 Z  M 72.4 2.8 C 97.5 2.8 118.9 18.8 127 41.1 C 116 30 100.7 23.2 83.9 23.2 C 80 23.2 76.1 23.6 72.4 24.3 C 68.7 23.6 64.8 23.2 60.9 23.2 C 44.1 23.2 28.8 30.1 17.8 41.1 C 25.8 18.8 47.3 2.8 72.4 2.8 Z  M 15.9 47.4 C 26.6 34.4 42.8 26 60.9 26 C 62.3 26 63.7 26.1 65.2 26.2 C 40.8 34.1 23.1 57.1 23.1 84.1 C 23.1 86.9 23.3 89.6 23.7 92.3 C 17.8 83.2 14.4 72.4 14.4 60.8 C 14.3 56.3 14.8 51.8 15.9 47.4 Z  M 60.8 142.3 C 28.8 142.3 2.7 116.2 2.7 84.2 C 2.7 72.6 6.1 61.8 12 52.7 C 11.6 55.4 11.4 58.1 11.4 60.9 C 11.4 75.3 16.4 88.5 24.7 98.9 C 29.8 119.3 45.2 135.6 65 142.1 C 63.7 142.2 62.3 142.3 60.8 142.3 Z  M 29.3 103.9 C 40.3 115 55.6 121.8 72.4 121.8 C 89.2 121.8 104.5 114.9 115.5 103.9 C 108.7 122.7 92.4 137 72.4 141.1 C 52.4 137.1 36.1 122.8 29.3 103.9 Z  M 83.9 142.3 C 82.5 142.3 81 142.2 79.6 142.1 C 99.4 135.7 114.8 119.3 119.9 98.9 C 128.2 88.5 133.2 75.3 133.2 60.9 C 133.2 58.1 133 55.4 132.6 52.7 C 138.5 61.8 141.9 72.6 141.9 84.2 C 142 116.2 115.9 142.3 83.9 142.3 Z  M 87.224 65.133 C 86.213 76.05 82.634 83.888 77.542 91.4 L 61.371 91.4 C 56.863 84.804 52.795 77.045 51.692 65.133 L 87.224 65.133 Z  M 94.083 58.567 L 44.833 58.567 C 44.833 77.334 50.829 88.104 57.967 97.967 L 80.95 97.967 C 87.911 88.409 94.083 77.173 94.083 58.567 Z  M 97.757 65.133 C 97.57 67.435 97.294 69.622 96.93 71.7 L 102.019 71.7 C 100.545 75.935 97.094 79.836 94.471 81.268 C 93.295 84.676 91.887 87.772 90.334 90.632 C 101.083 86.879 109.528 75.827 110.5 65.133 L 97.757 65.133 Z  M 72.328 55.28 C 87.881 41.26 69.11 42.002 72.712 32.3 C 60.291 44.832 77.338 45.112 72.328 55.28 Z  M 63.2 55.283 C 73.556 46.008 61.02 45.098 63.486 38.542 C 54.811 47.692 66.605 47.929 63.2 55.283 Z  M 94.083 104.533 L 44.833 104.533 L 44.833 111.1 L 94.083 111.1 L 94.083 104.533 Z " fill-rule="evenodd" fill="rgb(255,255,255)"/></g></svg>